# xmcd
#
# Track frame offsets:
#	150
#	19085
#	38725
#	56777
#	76370
#	96432
#	112735
#	132717
#	147945
#	160187
#	182482
#	199792
#	215167
#	233662
#	252365
#
# Disc length: 3601 seconds
#
# Revision: 1
# Processed by: cddbd v1.5.1PL2 Copyright (c) Steve Scherf et al.
# Submitted via: audiograbber 1.83.01
#
DISCID=d30e0f0f
DTITLE=Music Maestro - MM6209
DYEAR=1900
DGENRE=Karaoke
TTITLE0=Keith, Toby - We Were In Love
TTITLE1=Montgomery, John Michael - How Was I To Know
TTITLE2=Diamond Rio - How Your Love Makes Me Feel
TTITLE3=Rimes, LeAnn - How Do I Live
TTITLE4=Cyrus, Billy Ray - It's All The Same To Me
TTITLE5=Womack, Lee Ann - Fool, The
TTITLE6=Alabama - Dancin' Shaggin' On The Boulevard
TTITLE7=Blackhawk - Hole In My Heart
TTITLE8=Morgan, Lorrie - Go Away
TTITLE9=McGraw, Tim - Everywhere
TTITLE10=Diffie, Joe - Something Like This
TTITLE11=Mason, Mila - That's The Kinda Love
TTITLE12=Sawyer Brown - This Night Won't Last Forever
TTITLE13=Tritt, Travis and Lari White - Helping Me Get Over You
TTITLE14=Tucker, Tanya - Ridin' Out The Heartache
EXTD=As Listed In KJ Pro
EXTT0=
EXTT1=
EXTT2=
EXTT3=
EXTT4=
EXTT5=
EXTT6=
EXTT7=
EXTT8=
EXTT9=
EXTT10=
EXTT11=
EXTT12=
EXTT13=
EXTT14=
PLAYORDER=
